<?xml version="1.0" encoding="UTF-8"?>
<svg xmlns="http://www.w3.org/2000/svg" xmlns:xlink="http://www.w3.org/1999/xlink" width="375pt" height="374.999991pt" viewBox="0 0 375 374.999991" version="1.2">
<g id="surface1">
<path style=" stroke:none;fill-rule:nonzero;fill:rgb(90.589905%,92.549133%,92.939758%);fill-opacity:1;" d="M 353.988281 375 L 21.011719 375 C 9.40625 375 0 365.59375 0 353.988281 L 0 71.121094 L 375 71.121094 L 375 353.988281 C 375 365.59375 365.59375 375 353.988281 375 Z M 353.988281 375 "/>
<path style=" stroke:none;fill-rule:nonzero;fill:rgb(33.329773%,37.649536%,50.19989%);fill-opacity:1;" d="M 375 77.585938 L 0 77.585938 L 0 21.011719 C 0 9.40625 9.40625 0 21.011719 0 L 353.988281 0 C 365.59375 0 375 9.40625 375 21.011719 Z M 375 77.585938 "/>
<path style=" stroke:none;fill-rule:nonzero;fill:rgb(86.669922%,20.779419%,18.03894%);fill-opacity:1;" d="M 25.863281 25.863281 L 51.722656 25.863281 L 51.722656 51.722656 L 25.863281 51.722656 Z M 25.863281 25.863281 "/>
<path style=" stroke:none;fill-rule:nonzero;fill:rgb(92.158508%,72.938538%,8.628845%);fill-opacity:1;" d="M 77.585938 25.863281 L 103.449219 25.863281 L 103.449219 51.722656 L 77.585938 51.722656 Z M 77.585938 25.863281 "/>
<path style=" stroke:none;fill-rule:nonzero;fill:rgb(13.729858%,63.529968%,30.198669%);fill-opacity:1;" d="M 129.308594 25.863281 L 155.171875 25.863281 L 155.171875 51.722656 L 129.308594 51.722656 Z M 129.308594 25.863281 "/>
<path style=" stroke:none;fill-rule:nonzero;fill:rgb(92.158508%,72.938538%,8.628845%);fill-opacity:1;" d="M 258.621094 116.378906 L 336.207031 116.378906 L 336.207031 168.101562 L 258.621094 168.101562 Z M 258.621094 116.378906 "/>
<path style=" stroke:none;fill-rule:nonzero;fill:rgb(21.179199%,42.749023%,71.369934%);fill-opacity:1;" d="M 148.707031 116.378906 L 148.707031 252.15625 L 226.292969 252.15625 L 226.292969 116.378906 Z M 148.707031 116.378906 "/>
<path style=" stroke:none;fill-rule:nonzero;fill:rgb(45.098877%,51.368713%,74.899292%);fill-opacity:1;" d="M 38.792969 200.429688 L 38.792969 336.207031 L 116.378906 336.207031 L 116.378906 200.429688 Z M 38.792969 200.429688 "/>
<path style=" stroke:none;fill-rule:nonzero;fill:rgb(13.729858%,63.529968%,30.198669%);fill-opacity:1;" d="M 258.621094 200.429688 L 258.621094 336.207031 L 336.207031 336.207031 L 336.207031 200.429688 Z M 258.621094 200.429688 "/>
<path style=" stroke:none;fill-rule:nonzero;fill:rgb(86.669922%,20.779419%,18.03894%);fill-opacity:1;" d="M 148.707031 284.484375 L 226.292969 284.484375 L 226.292969 336.207031 L 148.707031 336.207031 Z M 148.707031 284.484375 "/>
<path style=" stroke:none;fill-rule:nonzero;fill:rgb(14.509583%,68.238831%,53.329468%);fill-opacity:1;" d="M 77.585938 174.570312 C 74.015625 174.570312 71.121094 171.671875 71.121094 168.101562 L 71.121094 116.378906 C 71.121094 112.808594 74.015625 109.914062 77.585938 109.914062 C 81.15625 109.914062 84.050781 112.808594 84.050781 116.378906 L 84.050781 168.101562 C 84.050781 171.671875 81.15625 174.570312 77.585938 174.570312 Z M 77.585938 174.570312 "/>
<path style=" stroke:none;fill-rule:nonzero;fill:rgb(14.509583%,68.238831%,53.329468%);fill-opacity:1;" d="M 103.449219 148.707031 L 51.722656 148.707031 C 48.15625 148.707031 45.257812 145.808594 45.257812 142.242188 C 45.257812 138.671875 48.15625 135.777344 51.722656 135.777344 L 103.449219 135.777344 C 107.015625 135.777344 109.914062 138.671875 109.914062 142.242188 C 109.914062 145.808594 107.015625 148.707031 103.449219 148.707031 Z M 103.449219 148.707031 "/>
</g>
</svg>
