<?xml version="1.0" encoding="iso-8859-1"?>
<!-- Generator: Adobe Illustrator 19.0.0, SVG Export Plug-In . SVG Version: 6.00 Build 0)  -->
<svg version="1.1" id="Capa_1" xmlns="http://www.w3.org/2000/svg" xmlns:xlink="http://www.w3.org/1999/xlink" x="0px" y="0px"
	 viewBox="0 0 384 384" style="enable-background:new 0 0 384 384;" xml:space="preserve">
<circle style="fill:#334D5C;" cx="192" cy="192" r="192"/>
<path style="opacity:0.1;enable-background:new    ;" d="M384,192c0-9.203-0.688-18.243-1.94-27.1L300.8,83.64l-0.4-0.4
	c-0.84-0.8-1.96-1.24-3.2-1.24H86.8c-2.64,0-4.8,2.12-4.8,4.8v40.88c0,1.32,0.52,2.48,1.4,3.32l0.24,0.24l18.24,18.28H86.8
	c-2.64,0-4.8,2.16-4.8,4.8v40.88c0,1.2,0.44,2.28,1.2,3.12l0.44,0.44l25.16,25.2h-1.08v18.6H87.48C84.44,242.56,82,245,82,248v48.52
	c0,1.28,0.44,2.48,1.2,3.4l0.92,0.92l81.284,81.284C174.102,383.33,182.97,384,192,384C298.039,384,384,298.038,384,192z"/>
<g>
	<rect x="146.528" y="132.44" style="fill:#D5D6DB;" width="8" height="17.076"/>
	<polygon style="fill:#D5D6DB;" points="188,223.974 115.728,223.974 107.728,223.974 107.728,231.974 107.728,242.542 
		115.728,242.542 115.728,231.974 188,231.974 188,242.542 196,242.542 196,231.974 268.272,231.974 268.272,242.542 
		276.272,242.542 276.272,231.974 276.274,231.974 276.274,223.974 276.272,223.974 268.272,223.974 196,223.974 196,199.976 
		188,199.976 	"/>
	<rect x="268.28" y="132.44" style="fill:#D5D6DB;" width="8" height="17.076"/>
</g>
<path style="fill:#FCD462;" d="M297.22,132.45c2.641,0,4.78-2.14,4.78-4.78V86.78c0-2.64-2.14-4.78-4.78-4.78H86.78
	c-2.64,0-4.78,2.14-4.78,4.78v40.89c0,2.64,2.141,4.78,4.78,4.78h59.747h8h113.746h8H297.22z"/>
<path style="fill:#E56353;" d="M247.322,149.526c-2.64,0-4.78,2.14-4.78,4.78v40.89c0,2.64,2.14,4.78,4.78,4.78h49.897
	c2.641,0,4.78-2.14,4.78-4.78v-40.89c0-2.64-2.14-4.78-4.78-4.78h-20.946h-8H247.322z"/>
<path style="fill:#44C4A1;" d="M86.78,149.526c-2.64,0-4.78,2.14-4.78,4.78v40.89c0,2.64,2.141,4.78,4.78,4.78H188h8h23.894
	c2.64,0,4.78-2.14,4.78-4.78v-40.89c0-2.64-2.141-4.78-4.78-4.78h-65.366h-8H86.78z"/>
<path style="fill:#FCD462;" d="M87.468,242.542c-3.019,0-5.468,2.448-5.468,5.467v48.523c0,3.02,2.448,5.468,5.468,5.468h48.523
	c3.019,0,5.468-2.448,5.468-5.468V248.01c0-3.02-2.448-5.467-5.468-5.467h-20.262h-8H87.468z"/>
<path style="fill:#64798A;" d="M167.738,242.542c-3.02,0-5.467,2.448-5.467,5.467v48.523c0,3.02,2.447,5.468,5.467,5.468h48.523
	c3.02,0,5.467-2.448,5.467-5.468V248.01c0-3.02-2.447-5.467-5.467-5.467H196h-8H167.738z"/>
<path style="fill:#DC8744;" d="M248.01,242.542c-3.019,0-5.467,2.448-5.467,5.467v48.523c0,3.02,2.448,5.468,5.467,5.468h48.524
	c3.02,0,5.467-2.448,5.467-5.468V248.01c0-3.02-2.447-5.467-5.467-5.467h-20.262h-8H248.01z"/>
<g>
</g>
<g>
</g>
<g>
</g>
<g>
</g>
<g>
</g>
<g>
</g>
<g>
</g>
<g>
</g>
<g>
</g>
<g>
</g>
<g>
</g>
<g>
</g>
<g>
</g>
<g>
</g>
<g>
</g>
</svg>
