<svg width="261" height="442" viewBox="0 0 261 442" fill="none" xmlns="http://www.w3.org/2000/svg">
<path d="M6.37505 74.3479L0 79V441.5L202.792 330.924C224.413 319.135 231.298 291.358 217.686 270.835L210.5 260L79 101L61.6728 80.7849C47.7451 64.536 23.6627 61.7327 6.37505 74.3479Z" fill="#3279FF"/>
<circle cx="44.5" cy="292.5" r="1.5" fill="white" fill-opacity="0.9"/>
<circle cx="59.5" cy="292.5" r="1.5" fill="white" fill-opacity="0.9"/>
<circle cx="74.5" cy="292.5" r="1.5" fill="white" fill-opacity="0.9"/>
<circle cx="89.5" cy="292.5" r="1.5" fill="white" fill-opacity="0.9"/>
<circle cx="104.5" cy="292.5" r="1.5" fill="white" fill-opacity="0.9"/>
<circle cx="119.5" cy="292.5" r="1.5" fill="white" fill-opacity="0.9"/>
<circle cx="44.5" cy="279.5" r="1.5" fill="white" fill-opacity="0.9"/>
<circle cx="59.5" cy="279.5" r="1.5" fill="white" fill-opacity="0.9"/>
<circle cx="74.5" cy="279.5" r="1.5" fill="white" fill-opacity="0.9"/>
<circle cx="89.5" cy="279.5" r="1.5" fill="white" fill-opacity="0.9"/>
<circle cx="104.5" cy="279.5" r="1.5" fill="white" fill-opacity="0.9"/>
<circle cx="119.5" cy="279.5" r="1.5" fill="white" fill-opacity="0.9"/>
<circle cx="44.5" cy="266.5" r="1.5" fill="white" fill-opacity="0.9"/>
<circle cx="59.5" cy="266.5" r="1.5" fill="white" fill-opacity="0.9"/>
<circle cx="74.5" cy="266.5" r="1.5" fill="white" fill-opacity="0.9"/>
<circle cx="89.5" cy="266.5" r="1.5" fill="white" fill-opacity="0.9"/>
<circle cx="104.5" cy="266.5" r="1.5" fill="white" fill-opacity="0.9"/>
<circle cx="119.5" cy="266.5" r="1.5" fill="white" fill-opacity="0.9"/>
<circle cx="44.5" cy="253.5" r="1.5" fill="white" fill-opacity="0.9"/>
<circle cx="59.5" cy="253.5" r="1.5" fill="white" fill-opacity="0.9"/>
<circle cx="74.5" cy="253.5" r="1.5" fill="white" fill-opacity="0.9"/>
<circle cx="89.5" cy="253.5" r="1.5" fill="white" fill-opacity="0.9"/>
<circle cx="104.5" cy="253.5" r="1.5" fill="white" fill-opacity="0.9"/>
<circle cx="119.5" cy="253.5" r="1.5" fill="white" fill-opacity="0.9"/>
<circle cx="44.5" cy="240.5" r="1.5" fill="white" fill-opacity="0.9"/>
<circle cx="59.5" cy="240.5" r="1.5" fill="white" fill-opacity="0.9"/>
<circle cx="74.5" cy="240.5" r="1.5" fill="white" fill-opacity="0.9"/>
<circle cx="89.5" cy="240.5" r="1.5" fill="white" fill-opacity="0.9"/>
<circle cx="104.5" cy="240.5" r="1.5" fill="white" fill-opacity="0.9"/>
<circle cx="119.5" cy="240.5" r="1.5" fill="white" fill-opacity="0.9"/>
<circle cx="44.5" cy="227.5" r="1.5" fill="white" fill-opacity="0.9"/>
<circle cx="59.5" cy="227.5" r="1.5" fill="white" fill-opacity="0.9"/>
<circle cx="74.5" cy="227.5" r="1.5" fill="white" fill-opacity="0.9"/>
<circle cx="89.5" cy="227.5" r="1.5" fill="white" fill-opacity="0.9"/>
<circle cx="104.5" cy="227.5" r="1.5" fill="white" fill-opacity="0.9"/>
<circle cx="119.5" cy="227.5" r="1.5" fill="white" fill-opacity="0.9"/>
<circle cx="44.5" cy="201.5" r="1.5" fill="white" fill-opacity="0.9"/>
<circle cx="59.5" cy="201.5" r="1.5" fill="white" fill-opacity="0.9"/>
<circle cx="74.5" cy="201.5" r="1.5" fill="white" fill-opacity="0.9"/>
<circle cx="89.5" cy="201.5" r="1.5" fill="white" fill-opacity="0.9"/>
<circle cx="104.5" cy="201.5" r="1.5" fill="white" fill-opacity="0.9"/>
<circle cx="119.5" cy="201.5" r="1.5" fill="white" fill-opacity="0.9"/>
<circle cx="44.5" cy="214.5" r="1.5" fill="white" fill-opacity="0.9"/>
<circle cx="59.5" cy="214.5" r="1.5" fill="white" fill-opacity="0.9"/>
<circle cx="74.5" cy="214.5" r="1.5" fill="white" fill-opacity="0.9"/>
<circle cx="89.5" cy="214.5" r="1.5" fill="white" fill-opacity="0.9"/>
<circle cx="104.5" cy="214.5" r="1.5" fill="white" fill-opacity="0.9"/>
<circle cx="119.5" cy="214.5" r="1.5" fill="white" fill-opacity="0.9"/>
<circle cx="252" cy="329" r="7.5" stroke="#3279FF" stroke-width="3"/>
<path d="M89.4344 11.5L89.4344 8.95935C89.4344 5.26528 92.9255 2.56784 96.5 3.49999V3.49999" stroke="#3279FF" stroke-width="3"/>
<path d="M30.7401 38.6495L31.4685 37.5335C35.702 31.0467 44.2905 29.0399 50.9601 32.9791V32.9791" stroke="#3279FF" stroke-width="3"/>
<rect x="84.0726" y="78.0313" width="13.0222" height="13.0222" transform="rotate(-57.303 84.0726 78.0313)" stroke="#3279FF" stroke-width="3"/>
</svg>
