<svg width="648" height="616" viewBox="0 0 648 616" fill="none" xmlns="http://www.w3.org/2000/svg">
<path d="M57.3071 5H647.307V616L66.3071 216L39.7567 195.957C-2.58123 163.996 -12.5954 104.537 16.9379 60.4714L27.3071 45L57.3071 5Z" fill="#3279FF"/>
<path d="M517.5 308.5V308.5C517.5 301.32 523.32 295.5 530.5 295.5H533" stroke="white" stroke-width="3"/>
<circle cx="510" cy="412" r="3" fill="white" fill-opacity="0.83"/>
<circle cx="537" cy="412" r="3" fill="white" fill-opacity="0.83"/>
<circle cx="564" cy="412" r="3" fill="white" fill-opacity="0.83"/>
<circle cx="483" cy="412" r="3" fill="white" fill-opacity="0.83"/>
<circle cx="456" cy="412" r="3" fill="white" fill-opacity="0.83"/>
<circle cx="510" cy="385" r="3" fill="white" fill-opacity="0.83"/>
<circle cx="537" cy="385" r="3" fill="white" fill-opacity="0.83"/>
<circle cx="564" cy="385" r="3" fill="white" fill-opacity="0.83"/>
<circle cx="483" cy="385" r="3" fill="white" fill-opacity="0.83"/>
<circle cx="456" cy="385" r="3" fill="white" fill-opacity="0.83"/>
<circle cx="510" cy="358" r="3" fill="white" fill-opacity="0.83"/>
<circle cx="537" cy="358" r="3" fill="white" fill-opacity="0.83"/>
<circle cx="564" cy="358" r="3" fill="white" fill-opacity="0.83"/>
<circle cx="483" cy="358" r="3" fill="white" fill-opacity="0.83"/>
<circle cx="456" cy="358" r="3" fill="white" fill-opacity="0.83"/>
<circle cx="510" cy="331" r="3" fill="white" fill-opacity="0.83"/>
<circle cx="537" cy="331" r="3" fill="white" fill-opacity="0.83"/>
<circle cx="564" cy="331" r="3" fill="white" fill-opacity="0.83"/>
<circle cx="483" cy="331" r="3" fill="white" fill-opacity="0.83"/>
<circle cx="456" cy="331" r="3" fill="white" fill-opacity="0.83"/>
<circle cx="510" cy="516" r="3" fill="white" fill-opacity="0.83"/>
<circle cx="537" cy="516" r="3" fill="white" fill-opacity="0.83"/>
<circle cx="564" cy="516" r="3" fill="white" fill-opacity="0.83"/>
<circle cx="510" cy="489" r="3" fill="white" fill-opacity="0.83"/>
<circle cx="537" cy="489" r="3" fill="white" fill-opacity="0.83"/>
<circle cx="564" cy="489" r="3" fill="white" fill-opacity="0.83"/>
<circle cx="483" cy="489" r="3" fill="white" fill-opacity="0.83"/>
<circle cx="510" cy="462" r="3" fill="white" fill-opacity="0.83"/>
<circle cx="537" cy="462" r="3" fill="white" fill-opacity="0.83"/>
<circle cx="564" cy="462" r="3" fill="white" fill-opacity="0.83"/>
<circle cx="483" cy="462" r="3" fill="white" fill-opacity="0.83"/>
<circle cx="456" cy="462" r="3" fill="white" fill-opacity="0.83"/>
<circle cx="510" cy="435" r="3" fill="white" fill-opacity="0.83"/>
<circle cx="537" cy="435" r="3" fill="white" fill-opacity="0.83"/>
<circle cx="564" cy="435" r="3" fill="white" fill-opacity="0.83"/>
<circle cx="483" cy="435" r="3" fill="white" fill-opacity="0.83"/>
<circle cx="456" cy="435" r="3" fill="white" fill-opacity="0.83"/>
<circle cx="85" cy="89" r="3" fill="white" fill-opacity="0.7"/>
<circle cx="112" cy="89" r="3" fill="white" fill-opacity="0.7"/>
<circle cx="139" cy="89" r="3" fill="white" fill-opacity="0.7"/>
<circle cx="58" cy="89" r="3" fill="white" fill-opacity="0.7"/>
<circle cx="31" cy="89" r="3" fill="white" fill-opacity="0.7"/>
<circle cx="85" cy="62" r="3" fill="white" fill-opacity="0.7"/>
<circle cx="112" cy="62" r="3" fill="white" fill-opacity="0.7"/>
<circle cx="139" cy="62" r="3" fill="white" fill-opacity="0.7"/>
<circle cx="58" cy="62" r="3" fill="white" fill-opacity="0.7"/>
<circle cx="31" cy="62" r="3" fill="white" fill-opacity="0.7"/>
<circle cx="85" cy="35" r="3" fill="white" fill-opacity="0.7"/>
<circle cx="112" cy="35" r="3" fill="white" fill-opacity="0.7"/>
<circle cx="139" cy="35" r="3" fill="white" fill-opacity="0.7"/>
<circle cx="58" cy="35" r="3" fill="white" fill-opacity="0.7"/>
<circle cx="85" cy="8" r="3" fill="white" fill-opacity="0.7"/>
<circle cx="112" cy="8" r="3" fill="white" fill-opacity="0.7"/>
<circle cx="139" cy="8" r="3" fill="white" fill-opacity="0.7"/>
<circle cx="58" cy="8" r="3" fill="white" fill-opacity="0.7"/>
<circle cx="85" cy="193" r="3" fill="white" fill-opacity="0.7"/>
<circle cx="112" cy="193" r="3" fill="white" fill-opacity="0.7"/>
<circle cx="139" cy="193" r="3" fill="white" fill-opacity="0.7"/>
<circle cx="58" cy="193" r="3" fill="white" fill-opacity="0.7"/>
<circle cx="85" cy="166" r="3" fill="white" fill-opacity="0.7"/>
<circle cx="112" cy="166" r="3" fill="white" fill-opacity="0.7"/>
<circle cx="139" cy="166" r="3" fill="white" fill-opacity="0.7"/>
<circle cx="58" cy="166" r="3" fill="white" fill-opacity="0.7"/>
<circle cx="31" cy="166" r="3" fill="white" fill-opacity="0.7"/>
<circle cx="85" cy="139" r="3" fill="white" fill-opacity="0.7"/>
<circle cx="112" cy="139" r="3" fill="white" fill-opacity="0.7"/>
<circle cx="139" cy="139" r="3" fill="white" fill-opacity="0.7"/>
<circle cx="58" cy="139" r="3" fill="white" fill-opacity="0.7"/>
<circle cx="31" cy="139" r="3" fill="white" fill-opacity="0.7"/>
<circle cx="85" cy="112" r="3" fill="white" fill-opacity="0.7"/>
<circle cx="112" cy="112" r="3" fill="white" fill-opacity="0.7"/>
<circle cx="139" cy="112" r="3" fill="white" fill-opacity="0.7"/>
<circle cx="58" cy="112" r="3" fill="white" fill-opacity="0.7"/>
<circle cx="31" cy="112" r="3" fill="white" fill-opacity="0.7"/>
<rect x="550.119" y="158.739" width="19.8388" height="19.8388" transform="rotate(-47.4701 550.119 158.739)" stroke="white" stroke-width="3"/>
<rect x="598.119" y="552.739" width="19.8388" height="19.8388" transform="rotate(-47.4701 598.119 552.739)" stroke="white" stroke-width="3"/>
<circle cx="422.42" cy="222.42" r="9.92" stroke="white" stroke-width="3"/>
<path d="M85 153.5L86.3673 152.309C94.2843 145.414 106.218 145.937 113.5 153.5V153.5" stroke="white" stroke-width="3"/>
</svg>
